<svg width="22" height="23" viewBox="0 0 22 23" fill="none" xmlns="http://www.w3.org/2000/svg">
<rect y="1.76923" width="21.8205" height="1.76923" rx="0.884615" fill="#fff"/>
<path d="M7.79297 1.76923C7.79297 0.792112 8.58508 0 9.5622 0H12.2582C13.2353 0 14.0274 0.792112 14.0274 1.76923H7.79297Z" fill="#fff"/>
<path d="M3.37903 8.06734C3.16165 6.84213 4.10393 5.71796 5.34827 5.71796H17.0618C18.3062 5.71796 19.2485 6.84213 19.0311 8.06734L16.852 20.3494C16.6826 21.3043 15.8526 22 14.8828 22H7.52735C6.55756 22 5.72751 21.3043 5.5581 20.3494L3.37903 8.06734Z" stroke="#fff" stroke-width="2"/>
<rect x="8.25635" y="4.78348" width="1.76923" height="17.037" fill="#fff"/>
<rect x="12.3846" y="5.63533" width="1.76923" height="16.1852" fill="#fff"/>
</svg>
