<svg width="36" height="41" viewBox="0 0 36 41" fill="none" xmlns="http://www.w3.org/2000/svg">
<path d="M2.28021 19.5271V38C2.28021 38.5523 2.72793 39 3.28021 39H12.1893C12.7416 39 13.1893 38.5523 13.1893 38V31.2308C13.1893 30.6785 13.637 30.2308 14.1893 30.2308H22.5C23.0523 30.2308 23.5 30.6785 23.5 31.2308V38C23.5 38.5523 23.9477 39 24.5 39H33.2802C33.8325 39 34.2802 38.5547 34.2802 38.0024V19.5206C34.2802 19.2771 34.1914 19.0485 34.0303 18.8658L19.0303 1.85089C18.6322 1.39928 17.9282 1.39928 17.5301 1.85089L2.53009 18.8658C2.36906 19.0485 2.28021 19.2836 2.28021 19.5271Z" stroke="black" stroke-width="3"/>
<rect x="1" y="19.2143" width="34" height="3" rx="1" fill="black"/>
</svg>
