<svg width="36" height="31" viewBox="0 0 36 31" fill="none" xmlns="http://www.w3.org/2000/svg">
<path d="M15.5 2H8C4.68629 2 2 4.68629 2 8V23C2 26.3137 4.68629 29 8 29H15.5" stroke="black" stroke-width="3" stroke-linecap="round"/>
<path d="M13.9756 14.196C13.1472 14.196 12.4756 14.8676 12.4756 15.696C12.4756 16.5244 13.1472 17.196 13.9756 17.196V14.196ZM35.2862 16.7566C35.872 16.1709 35.872 15.2211 35.2862 14.6353L25.7403 5.08938C25.1545 4.5036 24.2048 4.5036 23.619 5.08938C23.0332 5.67517 23.0332 6.62492 23.619 7.2107L32.1043 15.696L23.619 24.1813C23.0332 24.7671 23.0332 25.7168 23.619 26.3026C24.2048 26.8884 25.1545 26.8884 25.7403 26.3026L35.2862 16.7566ZM13.9756 17.196H34.2256V14.196H13.9756V17.196Z" fill="black"/>
</svg>
