<svg version="1.0" xmlns="http://www.w3.org/2000/svg"
 width="512.000000pt" height="512.000000pt" viewBox="0 0 512.000000 512.000000"
 preserveAspectRatio="xMidYMid meet">
<metadata>
Created by potrace 1.16, written by Peter Selinger 2001-2019
</metadata>
<g transform="translate(0.000000,512.000000) scale(0.100000,-0.100000)"
fill="#000000" stroke="none">
<path d="M1464 4425 c-448 -79 -809 -391 -949 -822 -30 -92 -55 -235 -55 -318
0 -201 83 -451 213 -638 72 -105 1768 -1902 1819 -1928 46 -23 58 -24 103 -2
36 17 1719 1790 1796 1893 95 126 161 266 206 439 22 81 26 118 26 236 0 118
-4 155 -26 236 -65 245 -165 418 -339 585 -181 174 -402 282 -653 321 -315 48
-688 -91 -945 -351 -62 -63 -66 -66 -113 -66 -48 0 -52 2 -139 85 -132 126
-266 211 -428 272 -160 61 -369 84 -516 58z m382 -345 c90 -23 182 -64 251
-111 27 -18 125 -108 219 -200 188 -184 209 -197 275 -164 19 10 106 88 194
175 210 206 285 255 459 300 103 26 340 28 449 4 283 -64 508 -287 582 -579
27 -104 25 -352 -4 -458 -29 -110 -100 -243 -174 -323 -34 -37 -385 -410 -781
-828 l-718 -761 -54 0 -54 0 -751 795 c-413 437 -771 821 -795 854 -122 163
-176 398 -145 631 26 193 94 330 230 465 114 113 238 179 406 214 11 2 90 4
176 5 126 1 171 -3 235 -19z"/>
</g>
</svg>
