<svg width="69" height="69" viewBox="0 0 69 69" fill="none" xmlns="http://www.w3.org/2000/svg">
<rect width="69" height="69" rx="12" fill="#091D36"/>
<circle cx="35.5594" cy="26.7797" r="6.77966" fill="white"/>
<mask id="path-3-inside-1_127_10" fill="white">
<path d="M23 46.4407C22.4477 46.4407 21.9962 45.9924 22.0369 45.4416C22.1432 44.003 22.4785 42.5884 23.0321 41.2517C23.7136 39.6067 24.7123 38.1119 25.9714 36.8528C27.2305 35.5937 28.7253 34.5949 30.3704 33.9135C32.0155 33.2321 33.7787 32.8814 35.5593 32.8814C37.34 32.8814 39.1032 33.2321 40.7483 33.9135C42.3934 34.5949 43.8881 35.5937 45.1472 36.8528C46.4063 38.1119 47.4051 39.6067 48.0865 41.2518C48.6402 42.5884 48.9755 44.003 49.0818 45.4416C49.1225 45.9924 48.6709 46.4407 48.1187 46.4407L35.5593 46.4407H23Z"/>
</mask>
<path d="M23 46.4407C22.4477 46.4407 21.9962 45.9924 22.0369 45.4416C22.1432 44.003 22.4785 42.5884 23.0321 41.2517C23.7136 39.6067 24.7123 38.1119 25.9714 36.8528C27.2305 35.5937 28.7253 34.5949 30.3704 33.9135C32.0155 33.2321 33.7787 32.8814 35.5593 32.8814C37.34 32.8814 39.1032 33.2321 40.7483 33.9135C42.3934 34.5949 43.8881 35.5937 45.1472 36.8528C46.4063 38.1119 47.4051 39.6067 48.0865 41.2518C48.6402 42.5884 48.9755 44.003 49.0818 45.4416C49.1225 45.9924 48.6709 46.4407 48.1187 46.4407L35.5593 46.4407H23Z" fill="white" stroke="white" stroke-width="6" mask="url(#path-3-inside-1_127_10)"/>
</svg>
