<svg version="1.2" baseProfile="tiny-ps" xmlns="http://www.w3.org/2000/svg" viewBox="0 0 32 31" width="32" height="31">
	<title>profile-svg</title>
	<defs>
		<clipPath clipPathUnits="userSpaceOnUse" id="cp1">
			<path d="M1 30.88C0.45 30.88 0 30.44 0.03 29.88C0.14 28.13 0.54 26.39 1.22 24.76C2.02 22.82 3.2 21.06 4.69 19.57C6.17 18.08 7.94 16.91 9.88 16.1C11.82 15.3 13.9 14.88 16 14.88C18.1 14.88 20.18 15.3 22.12 16.1C24.06 16.91 25.83 18.08 27.31 19.57C28.8 21.06 29.98 22.82 30.78 24.76C31.46 26.39 31.86 28.13 31.97 29.88C32 30.44 31.55 30.88 31 30.88L16 30.88L1 30.88Z" />
		</clipPath>
	</defs>
	<style>
		tspan { white-space:pre }
		.shp0 { fill: none;stroke: #000000;stroke-width: 6 } 
		.shp1 { fill: none;stroke: #000000;stroke-width: 3 } 
	</style>
	<g id="Clip-Path" clip-path="url(#cp1)">
		<path id="Layer" class="shp0" d="M1 30.88C0.45 30.88 0 30.44 0.03 29.88C0.14 28.13 0.54 26.39 1.22 24.76C2.02 22.82 3.2 21.06 4.69 19.57C6.17 18.08 7.94 16.91 9.88 16.1C11.82 15.3 13.9 14.88 16 14.88C18.1 14.88 20.18 15.3 22.12 16.1C24.06 16.91 25.83 18.08 27.31 19.57C28.8 21.06 29.98 22.82 30.78 24.76C31.46 26.39 31.86 28.13 31.97 29.88C32 30.44 31.55 30.88 31 30.88L16 30.88L1 30.88Z" />
	</g>
	<path id="Layer" class="shp1" d="M8.94 8.19C8.94 4.49 11.93 1.5 15.63 1.5C19.33 1.5 22.31 4.49 22.31 8.19C22.31 11.88 19.33 14.87 15.63 14.87C11.93 14.87 8.94 11.88 8.94 8.19Z" />
</svg>