<svg width="36" height="36" viewBox="0 0 36 36" fill="none" xmlns="http://www.w3.org/2000/svg">
<g clip-path="url(#clip0_68_568)">
<path d="M34.9811 18.1285C34.9918 18.1176 35.002 18.107 35.0123 18.0958C35.0372 18.0681 35.0598 18.0391 35.0809 18.0086C35.0874 17.9991 35.0946 17.9907 35.1007 17.9807C35.1254 17.9411 35.1468 17.8994 35.1645 17.856C35.1697 17.8433 35.1733 17.8303 35.1779 17.8174C35.19 17.7834 35.2 17.7488 35.2076 17.7132C35.2108 17.6986 35.214 17.684 35.2166 17.6688C35.2243 17.6198 35.2292 17.5704 35.228 17.5198C35.2269 17.4688 35.2194 17.4192 35.2095 17.3702C35.2066 17.3563 35.2031 17.3427 35.1993 17.329C35.1896 17.2918 35.1774 17.256 35.1628 17.221C35.1582 17.2101 35.1547 17.199 35.1497 17.1881C35.1295 17.1447 35.1057 17.1028 35.0781 17.0634C35.0731 17.0563 35.067 17.0498 35.0619 17.0426C35.038 17.0106 35.012 16.9804 34.9837 16.9522C34.9743 16.9429 34.9648 16.9339 34.9552 16.9251C34.9264 16.8986 34.8954 16.8745 34.8625 16.8523C34.8543 16.8468 34.8471 16.8407 34.8388 16.8354C34.8019 16.8121 34.7634 16.7914 34.7226 16.7739L11.8294 7.01008C11.523 6.87949 11.1684 6.94405 10.9276 7.1743C10.6871 7.40453 10.6068 7.75621 10.7238 8.06798L14.4526 18.0031L11.19 28.1009C11.0915 28.4061 11.1772 28.7394 11.4073 28.9591C11.4166 28.9679 11.4258 28.9763 11.4354 28.9847C11.6865 29.2033 12.0439 29.2515 12.3438 29.1068L34.7578 18.2885C34.7976 18.2693 34.8347 18.2468 34.8703 18.2221C34.8797 18.2154 34.888 18.2079 34.897 18.2009C34.9267 18.1786 34.9548 18.1544 34.9811 18.1285ZM30.5338 16.7967L15.9056 17.1373L12.9654 9.30417L30.5338 16.7967ZM13.3718 26.7623L15.9441 18.801L30.5728 18.4605L13.3718 26.7623Z" fill="white"/>
</g>
<defs>
<clipPath id="clip0_68_568">
<rect width="25.3532" height="25.3532" fill="white" transform="translate(17.5054) rotate(43.6662)"/>
</clipPath>
</defs>
</svg>
